<svg width="0" height="0" class="hidden">
    <symbol fill="none" xmlns="http://www.w3.org/2000/svg" viewBox="0 0 20 20" id="non-refundable">
        <path fill-rule="evenodd" clip-rule="evenodd"
              d="M4.62478 4.63247L2.18383 5.00014L2 3.77966L5.66142 3.22817L6.21291 6.88958L4.99244 7.07341L4.62478 4.63247Z"
              fill="#707276"></path>
        <path fill-rule="evenodd" clip-rule="evenodd"
              d="M5.50024 3.53116C3.45478 4.96007 2.1168 7.33198 2.1168 10.0164C2.1168 14.3825 5.65618 17.9218 10.0222 17.9218C14.3883 17.9218 17.9277 14.3825 17.9277 10.0164C17.9277 5.66297 14.4087 2.13144 10.0601 2.11105L10.035 3.11098C13.8429 3.11789 16.9277 6.2069 16.9277 10.0164C16.9277 13.8302 13.836 16.9218 10.0222 16.9218C6.20847 16.9218 3.1168 13.8302 3.1168 10.0164C3.1168 7.82671 4.13598 5.87507 5.72584 4.60995L5.50024 4.61576V3.99864V3.53116Z"
              fill="#707276"></path>
        <path d="M1.64918 16.7664L1.2933 17.1176L1.64451 17.4735L2.51148 18.352L2.86269 18.7078L3.21857 18.3566L18.2986 3.47419L18.6545 3.12298L18.3032 2.7671L17.4363 1.88863L17.0851 1.53275L16.7292 1.88397L1.64918 16.7664Z"
              fill="#707276" stroke="white"></path>
    </symbol>

    <symbol fill="none" xmlns="http://www.w3.org/2000/svg" viewBox="0 0 173 5" id="line">
        <g clip-path="url(#clip0)">
            <path d="M2.43792 2.5L170.438 2.5" stroke="#B9B9B9"></path>
            <circle cx="169.938" cy="2.5" r="2" fill="white" stroke="#B9B9B9"></circle>
            <circle cx="2.93796" cy="2.5" r="2" fill="white" stroke="#B9B9B9"></circle>
        </g>
        <circle cx="83.938" cy="2.5" r="2" fill="white" stroke="#B9B9B9"></circle>
        <defs>
            <clipPath id="clip0">
                <rect width="172" height="5" fill="white" transform="translate(0.437958)"></rect>
            </clipPath>
        </defs>
    </symbol>
    <symbol fill="none" xmlns="http://www.w3.org/2000/svg" viewBox="0 0 8 8" id="doneIcon">
        <path fill-rule="evenodd" clip-rule="evenodd"
              d="M7.95452 2.15273L3.24992 7.4454L0 4.19548L1.41421 2.78126L3.16429 4.53134L6.4597 0.824005L7.95452 2.15273Z"
              fill="white"></path>
    </symbol>

    <symbol fill="none" xmlns="http://www.w3.org/2000/svg" viewBox="0 0 20 20" id="filterIcon">
        <path fill-rule="evenodd" clip-rule="evenodd" d="M10.6464 8.64648L13.2929 6.00004L10.6464 3.35359L11.3535 2.64648L14 5.29293L16.6464 2.64648L17.3535 3.35359L14.7071 6.00004L17.3535 8.64648L16.6464 9.35359L14 6.70714L11.3535 9.35359L10.6464 8.64648ZM2.91465 6.00003H8C8 6.34074 8.0284 6.67482 8.08296 7.00003H2.91465C2.70873 7.58263 2.15311 8.00003 1.5 8.00003C0.671573 8.00003 0 7.32846 0 6.50003C0 5.6716 0.671573 5.00003 1.5 5.00003C2.15311 5.00003 2.70873 5.41743 2.91465 6.00003ZM7.91465 10H9.52779C9.86799 10.3801 10.2559 10.7166 10.6822 11H7.91465C7.70873 11.5826 7.15311 12 6.5 12C5.84689 12 5.29127 11.5826 5.08535 11H0.5C0.223858 11 0 10.7762 0 10.5C0 10.2239 0.223858 10 0.5 10H5.08535C5.29127 9.41743 5.84689 9.00003 6.5 9.00003C7.15311 9.00003 7.70873 9.41743 7.91465 10ZM2.91465 14C2.70873 13.4174 2.15311 13 1.5 13C0.671573 13 0 13.6716 0 14.5C0 15.3285 0.671573 16 1.5 16C2.15311 16 2.70873 15.5826 2.91465 15H14.5C14.7761 15 15 14.7762 15 14.5C15 14.2239 14.7761 14 14.5 14H2.91465Z" fill="#B9B9B9"></path>
    </symbol>

    <symbol fill="none" xmlns="http://www.w3.org/2000/svg" viewBox="0 0 20 20" id="filterIconHover">
        <path fill-rule="evenodd" clip-rule="evenodd" d="M10.6464 8.64648L13.2929 6.00004L10.6464 3.35359L11.3535 2.64648L14 5.29293L16.6464 2.64648L17.3535 3.35359L14.7071 6.00004L17.3535 8.64648L16.6464 9.35359L14 6.70714L11.3535 9.35359L10.6464 8.64648ZM2.91465 6.00003H8C8 6.34074 8.0284 6.67482 8.08296 7.00003H2.91465C2.70873 7.58263 2.15311 8.00003 1.5 8.00003C0.671573 8.00003 0 7.32846 0 6.50003C0 5.6716 0.671573 5.00003 1.5 5.00003C2.15311 5.00003 2.70873 5.41743 2.91465 6.00003ZM7.91465 10H9.52779C9.86799 10.3801 10.2559 10.7166 10.6822 11H7.91465C7.70873 11.5826 7.15311 12 6.5 12C5.84689 12 5.29127 11.5826 5.08535 11H0.5C0.223858 11 0 10.7762 0 10.5C0 10.2239 0.223858 10 0.5 10H5.08535C5.29127 9.41743 5.84689 9.00003 6.5 9.00003C7.15311 9.00003 7.70873 9.41743 7.91465 10ZM2.91465 14C2.70873 13.4174 2.15311 13 1.5 13C0.671573 13 0 13.6716 0 14.5C0 15.3285 0.671573 16 1.5 16C2.15311 16 2.70873 15.5826 2.91465 15H14.5C14.7761 15 15 14.7762 15 14.5C15 14.2239 14.7761 14 14.5 14H2.91465Z" fill="#7284E4"></path>
    </symbol>
</svg>